<svg width="25" height="26" viewBox="0 0 25 26" fill="none"
  xmlns="http://www.w3.org/2000/svg">
  <path fill-rule="evenodd" clip-rule="evenodd" d="M12.0021 4.99805C7.58267 4.99805 4 8.58072 4 13.0002C4 17.4196 7.58267 21.0023 12.0021 21.0023C16.4215 21.0023 20.0043 17.4196 20.0043 13.0002C20.0043 8.58072 16.4215 4.99805 12.0021 4.99805ZM5.5 13.0002C5.5 9.40915 8.4111 6.49805 12.0021 6.49805C15.5931 6.49805 18.5043 9.40915 18.5043 13.0002C18.5043 16.5912 15.5931 19.5023 12.0021 19.5023C8.4111 19.5023 5.5 16.5912 5.5 13.0002ZM12.511 9.17865C12.8189 9.45576 12.8438 9.92997 12.5667 10.2378L12.5593 10.2461C12.2822 10.554 11.808 10.5789 11.5001 10.3018C11.1922 10.0247 11.1673 9.55048 11.4444 9.24261L11.4518 9.23434C11.7289 8.92647 12.2032 8.90154 12.511 9.17865ZM12.0018 11.8878C12.416 11.8878 12.7518 12.2235 12.7518 12.6378V16.2638C12.7518 16.678 12.416 17.0138 12.0018 17.0138C11.5876 17.0138 11.2518 16.678 11.2518 16.2638V12.6378C11.2518 12.2235 11.5876 11.8878 12.0018 11.8878Z" fill="#434D7E"/>
</svg>
