<svg width="34" height="34" viewBox="0 0 34 34" fill="none"
  xmlns="http://www.w3.org/2000/svg">
  <rect x="17" y="0.0288086" width="4.36364" height="4.36357" rx="0.5" transform="rotate(45 17 0.0288086)" fill="#434D7E"/>
  <rect x="12.3721" y="4.65723" width="4.36364" height="4.36357" rx="0.5" transform="rotate(45 12.3721 4.65723)" fill="#434D7E"/>
  <rect x="7.74365" y="9.28516" width="4.36364" height="4.36357" rx="0.5" transform="rotate(45 7.74365 9.28516)" fill="#434D7E"/>
  <rect x="3.11523" y="13.9141" width="4.36364" height="4.36357" rx="0.5" transform="rotate(45 3.11523 13.9141)" fill="#434D7E"/>
  <rect x="21.6294" y="4.6582" width="4.36364" height="4.36357" rx="0.5" transform="rotate(45 21.6294 4.6582)" fill="#434D7E"/>
  <rect x="17.002" y="9.28711" width="4.36364" height="4.36357" rx="0.5" transform="rotate(45 17.002 9.28711)" fill="#434D7E"/>
  <rect x="12.374" y="13.9155" width="4.36364" height="4.36357" rx="0.5" transform="rotate(45 12.374 13.9155)" fill="#434D7E"/>
  <rect x="7.74512" y="18.5439" width="4.36364" height="4.36357" rx="0.5" transform="rotate(45 7.74512 18.5439)" fill="#434D7E"/>
  <rect x="26.2568" y="9.28564" width="4.36364" height="4.36357" rx="0.5" transform="rotate(45 26.2568 9.28564)" fill="#434D7E"/>
  <rect x="21.6279" y="13.9131" width="4.36364" height="4.36357" rx="0.5" transform="rotate(45 21.6279 13.9131)" fill="#434D7E"/>
  <rect x="17" y="18.541" width="4.36364" height="4.36357" rx="0.5" transform="rotate(45 17 18.541)" fill="#434D7E"/>
  <rect x="12.3711" y="23.1699" width="4.36364" height="4.36357" rx="0.5" transform="rotate(45 12.3711 23.1699)" fill="#434D7E"/>
  <rect x="30.8862" y="13.915" width="4.36364" height="4.36357" rx="0.5" transform="rotate(45 30.8862 13.915)" fill="#434D7E"/>
  <rect x="26.2578" y="18.543" width="4.36364" height="4.36357" rx="0.5" transform="rotate(45 26.2578 18.543)" fill="#434D7E"/>
  <rect x="21.6299" y="23.1714" width="4.36364" height="4.36357" rx="0.5" transform="rotate(45 21.6299 23.1714)" fill="#434D7E"/>
  <rect x="17.001" y="27.7998" width="4.36364" height="4.36357" rx="0.5" transform="rotate(45 17.001 27.7998)" fill="#434D7E"/>
</svg>
