<svg width="25" height="24" viewBox="0 0 25 24" fill="none"
  xmlns="http://www.w3.org/2000/svg">
  <path fill-rule="evenodd" clip-rule="evenodd" d="M12.0015 1.5C6.20247 1.5 1.50146 6.20101 1.50146 12C1.50146 14.4999 2.37515 16.7958 3.83384 18.599C5.17287 17.5925 7.78682 16.2001 12.0012 16.2001C16.2159 16.2001 18.8299 17.5926 20.1689 18.5992C21.6277 16.796 22.5015 14.5 22.5015 12C22.5015 6.20101 17.8004 1.5 12.0015 1.5ZM0.00146484 12C0.00146484 14.8909 1.02376 17.5431 2.72657 19.6147L2.72644 19.6149H2.72671C4.92753 22.2923 8.26508 24 12.0015 24C18.6288 24 24.0015 18.6274 24.0015 12C24.0015 5.37258 18.6288 0 12.0015 0C5.37404 0 0.00146484 5.37258 0.00146484 12ZM4.98909 19.6149H4.77213C6.65487 21.4029 9.20005 22.5 12.0015 22.5C14.8029 22.5 17.348 21.4029 19.2308 19.6149H19.0135C18.8247 19.4843 18.6104 19.3475 18.3694 19.2098C17.0922 18.4799 15.0288 17.7001 12.0012 17.7001C8.97371 17.7001 6.91028 18.4799 5.63317 19.2098C5.39219 19.3475 5.17782 19.4843 4.98909 19.6149ZM14.102 8.40006C14.102 9.55992 13.1618 10.5001 12.002 10.5001C10.8421 10.5001 9.90198 9.55992 9.90198 8.40006C9.90198 7.24025 10.8421 6.30006 12.002 6.30006C13.1618 6.30006 14.102 7.24025 14.102 8.40006ZM12.002 12.0001C13.9903 12.0001 15.602 10.3883 15.602 8.40006C15.602 6.41184 13.9903 4.80006 12.002 4.80006C10.0137 4.80006 8.40198 6.41184 8.40198 8.40006C8.40198 10.3883 10.0137 12.0001 12.002 12.0001Z" fill="#434D7E"/>
</svg>
